<svg width="44" height="44" viewBox="0 0 44 44" fill="none" xmlns="http://www.w3.org/2000/svg">
<path d="M44 22C44 28.0751 41.5376 33.5751 37.5564 37.5563C33.5751 41.5375 28.0751 44 22 44C15.9249 44 10.4249 41.5375 6.44365 37.5563C2.46243 33.5751 0 28.0751 0 22C0 15.9248 2.46243 10.4248 6.44365 6.44362C10.4249 2.4624 15.9249 -3.05176e-05 22 -3.05176e-05C28.0751 -3.05176e-05 33.5751 2.4624 37.5564 6.44362C41.5376 10.4248 44 15.9248 44 22Z" fill="white" fill-opacity="0.1"/>
<g clip-path="url(#clip0)">
<path d="M25.3313 15.3208H27.1571V12.1408C26.8421 12.0975 25.7588 12 24.4971 12C21.8646 12 20.0613 13.6558 20.0613 16.6992V19.5H17.1562V23.055H20.0613V32H23.6229V23.0558H26.4104L26.8529 19.5008H23.6221V17.0517C23.6229 16.0242 23.8996 15.3208 25.3313 15.3208Z" fill="white"/>
</g>
<defs>
<clipPath id="clip0">
<rect width="20" height="20" fill="white" transform="translate(12 12)"/>
</clipPath>
</defs>
</svg>
